# xmcd CD database file
#
# Track frame offsets:
#	150
#	26693
#	48696
#	70646
#	95275
#	118381
#	140152
#	171330
#	191457
#	219726
#	251580
#	267845
#
# Disc length: 3770 seconds
#
# Revision: 0
# Processed by: cddbd v1.5PL3 Copyright (c) Steve Scherf et al.
# Submitted via: CDex 1.50Beta5
#
DISCID=b90eb80c
DTITLE=AA.VV. - New Age n.95 Papau
DYEAR=1900
DGENRE=New Age
TTITLE0=Paul Mounsey - The Kenning
TTITLE1=Emer Kenny - Heaven
TTITLE2=Tony Levin - Waters of eden
TTITLE3=Jai Uttal - Be with you
TTITLE4=Scott Wilkie - Pier 39
TTITLE5=Urban Knights - I'm not in love
TTITLE6=Edoram - Dream of the night
TTITLE7=Richard Galliano - Melodicelli
TTITLE8=Masala - The conscienze of eno
TTITLE9=Robert De fresnes - A new down
TTITLE10=Arturo Staltieri - Zawinul/lava
TTITLE11=Sina Vodjani - Alap
EXTD=
EXTT0=
EXTT1=
EXTT2=
EXTT3=
EXTT4=
EXTT5=
EXTT6=
EXTT7=
EXTT8=
EXTT9=
EXTT10=
EXTT11=
PLAYORDER=
